:SAMPLES-PER-SECOND 30
:FULLY-SPECIFIED
:DEGREES
16
root  -85.7623 38.8426 -2.30008 -98.799 88.2233 -100.087
RightUpLeg  -26.2208 2.33873 0.879167
RightLeg  4.51841 10.8655 1.55927
RightFoot  5.09741 -0.879381 5.5104
RightToes  1.74622e-010 -1.59028e-015 9.93923e-017
Spine  -2.16226 -6.52786 -10.778
Spine1  12.1055 -9.59549 10.2429
HEad  -4.7516 11.0654 0.352066
LeftShoulder1  9.93923e-017 0 1.22299e-017
LeftArm  21.3146 -4.70617 -72.3024
LeftForeArm  -39.63 -31.6855 19.9289
LeftHand  0.756156 5.33342 -0.475826
RightShoulder  1.98785e-016 -4.96962e-017 1.55301e-017
RightArm  26.3042 -58.5219 61.4243
RightForeArm  -27.8518 16.2594 -2.12131
RightHand  1.37621 -13.2354 -2.49488
LeftUpLeg  6.2827 1.29495 0.48409
LeftLeg  12.3457 -8.6794 3.20951
LeftFoot  -15.9951 -0.107384 -2.71142
LeftToes  -5.36576e-011 -1.15168e-011 3.25213e-012
17
root  -83.7263 38.5751 -2.15581 -71.8438 87.5916 -73.0879
RightUpLeg  -26.1318 4.71037 0.882164
RightLeg  -0.35229 7.40339 1.67156
RightFoot  4.62733 -0.812874 5.20145
RightToes  1.74622e-010 -1.59028e-015 9.93923e-017
Spine  -2.27741 -6.61863 -10.1417
Spine1  12.5722 -9.8791 10.6438
HEad  -5.15721 12.6174 -0.106343
LeftShoulder1  9.93923e-017 0 1.22299e-017
LeftArm  18.3514 -6.90107 -70.532
LeftForeArm  -38.743 -31.7504 20.0049
LeftHand  0.709359 5.14464 0.709891
RightShoulder  1.98785e-016 -4.96962e-017 1.55301e-017
RightArm  26.964 -58.903 57.0596
RightForeArm  -25.1222 15.3074 -0.604677
RightHand  1.4109 -13.6059 -2.37041
LeftUpLeg  9.68794 1.15039 1.48425
LeftLeg  12.487 -8.11652 3.4723
LeftFoot  -16.1382 -0.171549 -4.80697
LeftToes  -5.36576e-011 -1.15168e-011 3.25213e-012
18
root  -81.6096 38.2805 -1.98465 -62.3601 86.3628 -63.8087
RightUpLeg  -27.2127 5.26012 2.5147
RightLeg  2.67689 4.72782 1.25365
RightFoot  5.15219 -0.552297 3.46524
RightToes  1.74622e-010 -1.59028e-015 9.93923e-017
Spine  -2.4151 -6.73978 -8.41903
Spine1  13.0027 -10.1017 10.7681
HEad  -5.31619 13.9752 -0.789122
LeftShoulder1  9.93923e-017 0 1.22299e-017
LeftArm  15.7421 -7.11757 -69.379
LeftForeArm  -38.4413 -31.1738 19.7722
LeftHand  0.619348 4.74323 2.13761
RightShoulder  1.98785e-016 -4.96962e-017 1.55301e-017
RightArm  27.0148 -58.7539 54.301
RightForeArm  -23.183 14.434 0.631484
RightHand  1.40012 -13.7655 -1.92441
LeftUpLeg  12.4604 -1.93909 2.31405
LeftLeg  13.7992 -5.16579 3.28449
LeftFoot  -15.1164 -0.183057 -9.7244
LeftToes  -5.36576e-011 -1.15168e-011 3.25213e-012
19
root  -79.4459 37.9229 -1.79276 -66.0107 85.2253 -67.4366
RightUpLeg  -28.486 4.04408 5.05849
RightLeg  10.4414 5.15632 0.142949
RightFoot  6.81685 -0.282998 1.65448
RightToes  1.74622e-010 -1.59028e-015 9.93923e-017
Spine  -1.64888 -6.8541 -6.03709
Spine1  12.7505 -10.0999 10.4085
HEad  -5.75501 14.735 -1.53061
LeftShoulder1  9.93923e-017 0 1.22299e-017
LeftArm  14.7725 -5.6798 -69.0969
LeftForeArm  -39.1782 -30.2207 19.3287
LeftHand  0.483662 4.22546 4.10279
RightShoulder  1.98785e-016 -4.96962e-017 1.55301e-017
RightArm  25.711 -58.499 53.6697
RightForeArm  -21.9445 13.7786 1.43542
RightHand  1.39049 -13.7711 -1.76877
LeftUpLeg  13.3183 -5.28493 3.4965
LeftLeg  18.9783 -1.92368 3.22394
LeftFoot  -10.0474 0.448856 -14.4531
LeftToes  -5.36576e-011 -1.15168e-011 3.25213e-012
20
root  -77.3914 37.5495 -1.59665 -72.1706 84.1023 -73.0701
RightUpLeg  -29.0342 2.72516 7.47597
RightLeg  18.7851 7.18566 -0.652475
RightFoot  6.54562 0.0806286 -0.476787
RightToes  1.74622e-010 -1.59028e-015 9.93923e-017
Spine  0.289812 -6.68249 -3.00355
Spine1  12.099 -9.52927 9.33682
HEad  -7.11211 14.7993 -1.72249
LeftShoulder1  9.93923e-017 0 1.22299e-017
LeftArm  15.995 -3.18294 -70.0058
LeftForeArm  -41.1605 -28.8919 18.6898
LeftHand  0.373204 3.93243 6.17601
RightShoulder  1.98785e-016 -4.96962e-017 1.55301e-017
RightArm  22.6297 -58.146 55.9612
RightForeArm  -21.4494 13.4742 1.74309
RightHand  1.40621 -13.7897 -1.97567
LeftUpLeg  10.7247 -4.74584 5.95874
LeftLeg  29.5345 -2.23737 4.65184
LeftFoot  -0.283254 1.45367 -13.2137
LeftToes  -5.36576e-011 -1.15168e-011 3.25213e-012
21
root  -75.5455 37.2866 -1.41917 -78.4288 82.7244 -78.7863
RightUpLeg  -28.7465 2.73441 9.29902
RightLeg  25.3484 7.35845 -1.1001
RightFoot  2.47796 0.363106 -2.73704
RightToes  1.74622e-010 -1.59028e-015 9.93923e-017
Spine  2.1991 -6.2269 0.775216
Spine1  12.1847 -8.40296 7.85296
HEad  -9.00048 13.9775 -1.03864
LeftShoulder1  9.93923e-017 0 1.22299e-017
LeftArm  19.5013 0.000731187 -72.1753
LeftForeArm  -44.2374 -26.9307 17.9111
LeftHand  0.384746 4.0945 6.92435
RightShoulder  1.98785e-016 -4.96962e-017 1.55301e-017
RightArm  19.2514 -57.0224 61.2191
RightForeArm  -22.2342 13.6386 1.63779
RightHand  1.41607 -13.8137 -2.08313
LeftUpLeg  4.83444 -3.21383 8.81509
LeftLeg  42.7451 -4.10171 7.07982
LeftFoot  8.33982 1.43213 -7.404
LeftToes  -5.36576e-011 -1.15168e-011 3.25213e-012
